<svg width="101" height="101" viewBox="0 0 101 101" fill="none" xmlns="http://www.w3.org/2000/svg">
<path d="M53.476 20.4101L52.7837 18.7981L54.2084 17.8909C54.5596 18.1139 55.0714 18.7596 54.9579 19.1737C54.9178 19.3218 53.9507 20.1683 53.7657 20.2968C53.6673 20.3645 53.6508 20.4566 53.476 20.4101Z" fill="#29EFE0"/>
<path d="M62.0107 75.8887C62.2224 75.6161 59.8766 74.9908 59.645 74.9688C56.3148 74.6467 51.8529 75.0404 48.4564 75.1972C46.2995 75.2972 43.8063 75.0035 42.0565 76.4659C48.617 78.1448 55.5784 78.0526 62.0107 75.8887ZM43.3251 65.2795C41.0368 65.0212 38.8404 64.181 36.8748 63.0202L34.4438 61.2421L34.5597 64.5874C37.7056 63.6439 40.3973 65.8923 42.1147 68.2768L43.3251 65.2795ZM47.5925 55.1297C47.3091 54.9218 45.0742 55.8006 44.5914 55.6572C44.1315 55.5202 42.7417 54.2217 42.3998 53.8052L41.5958 52.5916C42.0952 55.0682 44.5647 56.3983 46.668 57.3204L47.5925 55.1297ZM68.9311 60.2035C68.4421 60.3506 68.1098 60.9058 67.7167 61.2391C65.2355 63.3455 61.064 65.3827 57.7685 64.5039C55.7217 63.9582 54.339 62.1926 54.8665 60.0379C55.7139 56.5739 61.3152 55.9125 61.3176 51.8993L60.8358 52.9728C60.5475 53.4955 59.3025 55.1012 58.819 55.3502C58.5804 55.473 58.4425 55.3391 58.2899 55.3841C58.0983 55.4391 57.9645 55.7117 57.7472 55.773C57.3708 55.8802 56.0406 55.0887 55.551 54.9557C54.2105 54.5918 52.6308 54.8744 51.2465 54.7785C51.1386 54.8045 50.9882 55.2809 50.9354 55.4147C50.5701 56.3401 49.473 59.1467 49.3722 59.9688C49.3321 60.2924 49.5305 60.4671 49.5448 60.7326C49.6416 62.5256 49.2565 63.4431 47.8477 64.5535C47.146 66.0316 46.7799 68.609 45.9608 69.9329C45.3387 70.9393 44.0364 70.2486 43.2086 69.9509L45.1308 74.3955L58.8237 74.0302L58.9898 73.8497C59.3859 72.1047 60.0403 70.4077 60.912 68.8516C62.4752 66.0631 65.2599 62.9738 68.8082 63.6604C68.7941 63.5558 68.9311 63.4163 68.9311 63.3754V60.2035ZM47.7082 49.822C46.7113 48.5385 44.9907 49.4313 43.6717 49.4779C43.6725 49.6716 44.0559 49.6976 44.189 49.7085C45.356 49.7998 46.5374 49.8377 47.7082 49.822ZM59.3434 50.6441L57.3361 49.825C55.8005 51.2584 54.2626 50.1331 54.1428 48.2903L53.9838 48.1036C51.8545 47.2547 50.077 46.1925 47.702 46.6445C46.0711 46.9547 44.7772 47.8825 43.4417 48.7864C43.4134 48.9935 43.6928 48.8919 43.815 48.8715C44.3182 48.7896 44.8032 48.5911 45.3395 48.5502C47.8217 48.358 48.9454 49.2747 48.4068 51.8513L48.5108 52.0735L51.8261 53.3768C52.0916 53.3806 52.2845 52.8923 52.4891 52.701C53.1608 52.0765 54.246 51.8844 54.9635 52.5444C55.636 53.1625 55.3044 54.0304 55.5477 54.2674L57.5724 55.0887C57.9016 55.0541 58.711 52.82 58.867 52.3892C58.9819 52.0727 59.4797 50.8536 59.3434 50.6441ZM43.4102 34.6275C42.7661 33.9479 41.6722 35.0825 42.4518 35.6433C43.1866 36.1725 43.9505 35.1968 43.4102 34.6275ZM44.3623 34.7125C43.8914 33.6084 42.6385 33.28 41.5446 33.451C40.5681 33.6038 39.7113 34.7865 39.5335 35.7111C39.0783 38.0711 41.3872 39.4823 43.3243 38.2302C38.2324 38.9862 40.461 31.2814 44.3623 34.7125ZM33.0453 29.7662L32.0208 29.8686C31.9807 30.327 32.2476 30.7113 32.3798 31.1286L33.5209 30.9058L33.0453 29.7662ZM54.8595 48.6699C59.7482 47.7847 65.7907 45.1317 67.3184 39.9625C68.0814 37.3829 67.5302 35.1149 66.6553 32.6633C64.8645 27.6448 61.468 22.7829 56.1826 21.1048C55.0437 22.0291 53.9973 23.1576 52.9002 24.161C50.8338 26.0501 48.4116 28.4463 46.0554 29.8883C45.6475 30.1387 45.1679 30.4206 44.7095 30.5625L45.5372 31.8664C47.3145 36.0747 42.322 44.1537 37.478 41.3092C35.5116 40.1549 35.6872 37.7482 36.5001 35.904C36.8285 35.1581 37.3355 34.5259 37.6726 33.7902L32.9405 35.4591C32.1893 39.6327 32.5657 43.8348 36.0047 46.7051C36.9906 47.5289 40.7894 49.5803 41.9746 49.2227C42.0952 49.1864 43.4322 47.9903 43.7505 47.7682C45.4798 46.557 47.454 45.7137 49.6156 45.8971C50.5 45.9719 53.783 47.1027 54.4807 47.6067C54.902 47.9107 54.8823 48.1722 54.8595 48.6699ZM56.2439 19.6037C55.9124 19.5896 55.6526 19.3942 55.3234 19.5454C55.1115 19.6432 53.8428 20.9763 53.4775 21.2771C47.5657 26.1469 39.8698 29.8087 32.4877 31.7767C32.2034 32.1799 31.0443 34.5408 31.2624 34.8345C31.6821 35.099 32.1917 34.8873 32.6224 34.7952C35.7747 34.1156 40.2161 32.1216 43.1362 30.66C47.4099 28.5189 50.9213 25.2067 54.3414 21.9063C54.7619 21.5007 55.4358 20.8858 55.7794 20.4645C55.8911 20.3266 56.3755 19.7597 56.2439 19.6037ZM32.253 29.1771L33.4076 29.1182L34.2668 30.649L38.8136 28.8906C37.8733 27.2321 36.8442 25.6185 35.9235 23.9483C35.5165 23.2104 33.9902 20.636 33.9714 20.0069C33.9587 19.5746 34.1809 19.1344 34.0966 18.68C31.7829 21.715 31.4239 25.5272 32.253 29.1771ZM53.4767 20.4101C53.6507 20.4566 53.6672 20.3645 53.7656 20.2968C53.9507 20.1683 54.9177 19.3218 54.9587 19.1737C55.0714 18.7596 54.5587 18.1139 54.2083 17.8909L52.7828 18.7981L53.4767 20.4101ZM34.7895 15.5671C34.5974 15.4111 31.4436 17.605 31.06 17.8917C21.5337 25.0208 16.4474 36.6914 17.8491 48.5967C18.8233 56.8763 22.9544 64.4519 29.1976 69.8918C29.4528 69.9273 29.3339 69.8557 29.3654 69.7186C29.7079 68.2484 30.1812 67.2349 31.5962 66.5261C31.9468 66.3513 32.572 66.2427 32.7768 66.0923C32.8358 66.049 33.71 65.0496 33.7233 64.9771C33.765 64.7646 33.532 64.0566 33.517 63.7258C33.4697 62.7226 33.7579 60.9367 33.6295 60.1522C33.5477 59.645 32.8248 58.6127 32.65 57.7873C31.9152 54.3154 33.9061 50.5401 35.6905 47.6863C34.5619 46.7767 33.5721 45.6877 32.8846 44.4041C31.3962 41.6251 31.6374 38.6703 31.9067 35.6355C29.5458 35.7046 30.8906 33.4957 31.445 32.2918C25.4759 31.0719 26.5823 23.5648 31.1356 21.1969C31.3884 21.0652 31.9625 20.9826 32.1083 20.8425C32.2752 20.6826 32.7909 19.3991 33.0114 19.0352C33.3013 18.5572 34.2698 17.5452 34.3825 17.2932C34.5809 16.8515 34.4651 16.0364 34.7895 15.5671ZM45.3435 13.7205C44.526 13.6338 43.582 13.7842 42.7488 13.7205C41.9714 17.5224 43.8323 21.4473 44.9387 25.024C44.5843 24.7035 44.3607 24.1215 44.1489 23.6814C42.6455 20.5661 41.2723 16.8813 42.0424 13.3929L41.2501 12.9133L40.6761 17.2287L44.7726 26.0659C45.8334 25.6854 52.8979 21.3229 52.9947 20.7975L51.974 18.8517L53.005 17.7161C51.8128 16.4057 50.1195 15.3002 48.4785 14.622C47.6673 14.2874 46.194 13.8102 45.3435 13.7205ZM44.5938 26.291L40.0083 17.672C39.8194 16.0648 40.4407 14.489 40.4997 12.9141L35.4322 15.8048C35.2496 16.0592 34.9716 17.7579 34.9204 18.176C34.8494 18.7453 34.6958 19.8085 34.8139 20.3282C34.9312 20.8495 36.0362 22.5474 36.3497 23.1766C37.2748 25.0335 38.1199 26.9289 39.0553 28.782L44.5938 26.291ZM74.7656 20.9235C66.1457 12.4698 53.6711 9.06863 41.9416 12.4532C42.555 13.3818 43.9017 12.9566 44.8867 13.0236C47.3091 13.1881 50.0526 14.3976 51.964 15.8663C52.2932 16.1191 53.3112 17.1609 53.4775 17.2365C53.8561 17.4083 54.2753 17.168 54.6926 17.4059C55.1917 17.6901 55.5431 18.7753 55.6643 18.8564C55.8753 18.9973 56.5487 18.9217 56.8283 19.3053C57.1164 19.7014 56.6597 20.2762 56.9936 20.4101C59.0063 15.171 65.0228 16.1562 67.5246 20.4905C69.2791 23.5286 68.2066 26.0233 65.3724 27.7315C68.0183 32.2601 70.2841 37.9663 67.0664 42.8252C66.8505 43.1504 65.4764 44.6773 65.4685 44.8049C66.8491 46.1223 68.1104 47.7296 69.0956 49.3706C70.584 51.8521 71.7354 54.5815 70.6336 57.4654C70.4667 57.904 69.7752 58.8782 69.7391 59.1175C69.6549 59.6702 69.9817 60.9917 69.9792 61.6445L69.7305 64.0495C70.3171 64.1527 70.6564 64.9567 70.9739 65.1686C71.2211 65.3339 71.8085 65.4149 72.148 65.5804C73.2874 66.1356 74.2805 67.2168 74.4688 68.5082C76.0594 67.1285 77.5028 65.4371 78.714 63.7006C87.9945 50.3968 86.3205 32.2539 74.7656 20.9235ZM71.659 75.85C69.8099 77.673 67.4899 78.7322 64.9315 77.6408C64.4424 77.4321 64.0801 77.0604 63.5785 76.9273C56.2943 79.744 47.9084 79.9291 40.4776 77.5305C36.8071 80.5859 32.3744 77.7337 30.3866 74.2372C30.0433 73.634 29.7718 72.5591 29.4897 72.1362C29.248 71.7725 27.7447 70.7226 27.2911 70.2974C6.2668 50.6189 16.6065 15.1433 44.8032 10.1814C78.0911 4.32243 99.9291 44.0489 76.5469 68.7995C76.1413 69.2287 74.7639 70.3313 74.5797 70.6391C74.3561 71.0133 74.2561 71.8229 74.0616 72.3126C73.5812 73.5262 72.5867 74.9357 71.659 75.85Z" fill="black"/>
<path d="M74.898 20.9235C86.4529 32.2539 88.1272 50.3968 78.8464 63.7006C77.6355 65.4371 76.1918 67.1285 74.6012 68.5082C74.4129 67.2168 73.4199 66.1356 72.2804 65.5804C71.9409 65.4149 71.3535 65.3339 71.1063 65.1686C70.789 64.9567 70.4495 64.1527 69.8629 64.0495L70.1117 61.6445C70.1141 60.9917 69.7873 59.6694 69.8716 59.1175C69.9078 58.8782 70.5991 57.904 70.766 57.4654C71.8678 54.5815 70.7164 51.8521 69.2274 49.3706C68.2431 47.7296 66.9815 46.1223 65.6009 44.8049C65.6088 44.6773 66.9831 43.1504 67.1988 42.8252C70.4165 37.9663 68.1509 32.2601 65.505 27.7315C68.339 26.0233 69.4109 23.5286 67.657 20.4905C65.1552 16.1562 59.1389 15.171 57.126 20.4101C56.7922 20.2762 57.249 19.7014 56.9607 19.3053C56.6811 18.9217 56.0077 18.9973 55.7967 18.8555C55.6755 18.7753 55.3243 17.6901 54.825 17.4051C54.4077 17.168 53.9887 17.4083 53.6099 17.2365C53.443 17.1609 52.4256 16.1191 52.0964 15.8663C50.1852 14.3976 47.4415 13.1881 45.0191 13.0236C44.0341 12.9566 42.6874 13.3818 42.074 12.4532C53.8037 9.06863 66.2783 12.4698 74.898 20.9235Z" fill="#636363"/>
<path d="M34.7895 15.5671C34.4652 16.0364 34.5809 16.8515 34.3833 17.2932C34.2698 17.5452 33.3014 18.5572 33.0115 19.0352C32.7909 19.3991 32.2752 20.6818 32.1083 20.8425C31.9634 20.9826 31.3884 21.0653 31.1356 21.1969C26.5823 23.5649 25.476 31.0719 31.4444 32.2918C30.8907 33.4957 29.545 35.7046 31.9067 35.6355C31.6382 38.6703 31.3963 41.6251 32.8847 44.4041C33.5721 45.6877 34.5619 46.7767 35.6905 47.6871C33.9061 50.5409 31.9152 54.3154 32.65 57.7873C32.8248 58.6127 33.5477 59.645 33.6295 60.1523C33.758 60.9367 33.4697 62.7226 33.5163 63.7258C33.532 64.0566 33.765 64.7646 33.7233 64.9771C33.71 65.0497 32.8359 66.049 32.7776 66.0923C32.572 66.2427 31.9468 66.3506 31.5962 66.5261C30.1812 67.235 29.7079 68.2484 29.3654 69.7178C29.3339 69.8557 29.4529 69.9273 29.1968 69.8912C22.9544 64.4519 18.8233 56.8763 17.8492 48.5967C16.4475 36.6914 21.5337 25.0208 31.06 17.8917C31.4436 17.605 34.5974 15.4111 34.7895 15.5671Z" fill="#5A5A5A"/>
<path d="M52.4073 37.3946C51.1725 36.0969 43.7787 37.9782 48.3761 40.1004C49.0872 40.428 50.0724 40.328 49.8472 41.4062C49.6053 42.5645 47.9564 42.8835 47.05 42.3494C46.5436 42.0519 46.2957 41.1943 45.8624 41.6934C46.7829 43.6173 48.9983 43.7874 50.3024 42.1148C51.6095 43.2046 53.5136 42.9196 54.3468 41.4084C54.4666 41.1903 54.8051 40.5115 54.4547 40.3657C54.1579 40.2421 54.2271 40.3792 54.1571 40.5288C54.0563 40.7461 54.0287 40.9366 53.8713 41.1643C52.9026 42.5621 50.5385 42.4527 50.2929 40.6012L50.355 40.4248C51.1717 40.1619 53.2546 38.2852 52.4073 37.3946ZM54.4847 28.5149C52.3718 28.7882 51.8757 30.6861 52.2599 32.5256C53.0411 36.2638 58.3937 41.3644 62.1807 38.2852C66.5852 34.7045 58.4259 28.0046 54.4847 28.5149ZM54.8603 48.6699C54.8823 48.1722 54.902 47.9107 54.4807 47.6067C53.783 47.1027 50.5 45.9719 49.6155 45.8971C47.454 45.7137 45.4798 46.557 43.7505 47.7682C43.4322 47.9903 42.0952 49.1864 41.9746 49.2227C40.7894 49.5803 36.9905 47.5289 36.0039 46.7051C32.5657 43.8348 32.1893 39.6327 32.9405 35.4591L37.6717 33.7902C37.3355 34.5259 36.8285 35.1581 36.5001 35.904C35.6872 37.7482 35.5116 40.1549 37.478 41.3092C42.322 44.1537 47.3145 36.0747 45.5372 31.8664L44.7095 30.5625C45.1679 30.4206 45.6475 30.1387 46.0553 29.8883C48.4116 28.4463 50.8338 26.0501 52.9002 24.161C53.9973 23.1576 55.0437 22.0291 56.1826 21.1048C61.468 22.7829 64.8645 27.6448 66.6561 32.6633C67.5309 35.1149 68.0814 37.3829 67.3184 39.9625C65.7907 45.1317 59.7482 47.7847 54.8603 48.6699Z" fill="white"/>
<path d="M68.9313 60.2035V63.3754C68.9313 63.4155 68.7942 63.5558 68.8083 63.6604C65.26 62.9738 62.4753 66.0631 60.9122 68.8516C60.0405 70.4085 59.3853 72.1047 58.9899 73.8498L58.8238 74.0302L45.1318 74.3955L43.2087 69.9509C44.0371 70.2486 45.3388 70.9393 45.9609 69.9329C46.78 68.609 47.1461 66.0316 47.8479 64.5535C49.2566 63.4423 49.6417 62.5257 49.5449 60.7327C49.5306 60.4672 49.3322 60.2924 49.3724 59.9688C49.4732 59.1459 50.5702 56.3401 50.9355 55.4147C50.9884 55.2809 51.1388 54.8037 51.2466 54.7785C52.631 54.8753 54.2107 54.5918 55.5519 54.9557C56.0408 55.0888 57.3709 55.8802 57.7481 55.773C57.9646 55.7117 58.0985 55.4391 58.29 55.3841C58.4426 55.3391 58.5805 55.4738 58.8192 55.3502C59.3026 55.1013 60.5477 53.4955 60.8352 52.9728L61.3178 51.8993C61.3154 55.9125 55.714 56.5739 54.8667 60.0373C54.3391 62.1926 55.7219 63.9582 57.7687 64.5039C61.0642 65.3819 65.2356 63.3456 67.7169 61.2391C68.1092 60.9058 68.4422 60.3506 68.9313 60.2035Z" fill="white"/>
<path d="M45.3436 13.7205C46.1942 13.8102 47.6674 14.2874 48.4787 14.622C50.1197 15.3002 51.8129 16.4057 53.0051 17.7161L51.9742 18.8517L52.9948 20.7975C52.8981 21.3229 45.8335 25.6854 44.7727 26.0658L40.6763 17.2287L41.2502 12.9133L42.0425 13.3929C41.2724 16.8813 42.6457 20.5661 44.149 23.6814C44.3609 24.1206 44.5844 24.7035 44.9388 25.024C43.8325 21.4473 41.9715 17.5216 42.7481 13.7205C43.5813 13.7834 44.5262 13.6346 45.3436 13.7205Z" fill="#FFF100"/>
<path d="M44.5939 26.2911L39.0554 28.782C38.1208 26.9289 37.2749 25.0335 36.3498 23.1758C36.0363 22.5474 34.9322 20.8495 34.814 20.3282C34.6959 19.8085 34.8495 18.7453 34.9197 18.176C34.9717 17.7579 35.2503 16.0592 35.4323 15.8048L40.4999 12.9141C40.4408 14.489 39.8195 16.0649 40.0084 17.672L44.5939 26.2911Z" fill="#E24B00"/>
<path d="M56.244 19.6037C56.3756 19.7597 55.8912 20.3266 55.7787 20.4645C55.436 20.8858 54.762 21.4999 54.3415 21.9055C50.9214 25.2066 47.41 28.5189 43.1364 30.6592C40.2162 32.1216 35.7748 34.1156 32.6225 34.7944C32.1919 34.8873 31.6822 35.0984 31.2625 34.8337C31.0444 34.5408 32.2036 32.1799 32.4886 31.7767C39.8699 29.8087 47.5658 26.1461 53.4777 21.2771C53.843 20.9763 55.1116 19.6432 55.3235 19.5454C55.6527 19.3942 55.9126 19.5896 56.244 19.6037Z" fill="#A87C4F"/>
<path d="M59.3434 50.6442C59.4797 50.8536 58.982 52.0727 58.8671 52.3892C58.711 52.82 57.9016 55.0541 57.5724 55.0888L55.5478 54.2674C55.3044 54.0304 55.6361 53.1625 54.9635 52.5444C54.2453 51.8844 53.1609 52.0765 52.49 52.701C52.2845 52.8924 52.0916 53.3806 51.8261 53.3768L48.5108 52.0735L48.4068 51.8513C48.9455 49.2747 47.8218 48.358 45.3395 48.5502C44.8033 48.5911 44.3182 48.7897 43.815 48.8715C43.6929 48.8919 43.4135 48.9935 43.4417 48.7864C44.7773 47.8825 46.0711 46.9547 47.7012 46.6445C50.0779 46.1925 51.8545 47.2547 53.9838 48.1036L54.1428 48.2903C54.2626 50.1331 55.8014 51.2584 57.3361 49.8251L59.3434 50.6442Z" fill="#29EFE0"/>
<path d="M32.253 29.1771C31.4246 25.5272 31.7828 21.715 34.0966 18.68C34.1808 19.1344 33.9587 19.5746 33.9714 20.0069C33.9901 20.6361 35.5164 23.2104 35.9234 23.9483C36.8441 25.6177 37.8733 27.2313 38.8135 28.8906L34.2667 30.649L33.4075 29.1182L32.253 29.1771Z" fill="#FFF100"/>
<path d="M62.0109 75.8887C55.5785 78.0526 48.6172 78.1448 42.0566 76.4659C43.8065 75.0035 46.2996 75.2972 48.4565 75.1972C51.853 75.0404 56.315 74.6467 59.6452 74.9688C59.8768 74.9908 62.2226 75.6161 62.0109 75.8887Z" fill="#636363"/>
<path d="M43.3251 65.2795L42.1147 68.2768C40.3973 65.8923 37.7056 63.6439 34.5597 64.5866L34.4446 61.2421L36.8748 63.0202C38.8404 64.181 41.0368 65.0212 43.3251 65.2795Z" fill="white"/>
<path d="M44.3623 34.7131C40.461 31.2814 38.2323 38.9862 43.3243 38.2302C41.3871 39.4823 39.0782 38.0711 39.5335 35.711C39.7113 34.7865 40.568 33.6038 41.5446 33.4509C42.6384 33.28 43.8914 33.6076 44.3623 34.7131Z" fill="white"/>
<path d="M47.5926 55.1297L46.6681 57.3196C44.5649 56.3983 42.0953 55.0682 41.5959 52.5916L42.3999 53.8052C42.7418 54.2217 44.1308 55.5201 44.5915 55.6572C45.0743 55.8006 47.3092 54.9218 47.5926 55.1297Z" fill="white"/>
<path d="M47.7082 49.822C46.5373 49.8377 45.356 49.7999 44.1889 49.7085C44.0559 49.6976 43.6724 49.6724 43.6716 49.4779C44.9907 49.4313 46.7113 48.5385 47.7082 49.822Z" fill="white"/>
<path d="M43.4103 34.6275C43.9506 35.1968 43.1867 36.1725 42.4519 35.6441C41.6723 35.0825 42.7662 33.9479 43.4103 34.6275Z" fill="white"/>
<path d="M33.0454 29.7662L33.521 30.9058L32.38 31.1286C32.2477 30.7113 31.9808 30.327 32.0209 29.8686L33.0454 29.7662Z" fill="#29EFE0"/>
<path d="M55.402 32.6547C54.9193 32.8004 54.8673 33.7463 55.5209 33.884C56.6779 34.1289 56.4888 32.3265 55.402 32.6547ZM56.1289 36.5576C58.6378 36.9914 60.3199 34.6738 58.7134 32.5311C57.3653 30.7332 54.6446 30.9506 53.9404 33.1619C53.939 33.4792 53.9476 33.4201 54.0783 33.1832C55.9926 29.7119 60.3955 33.7556 57.3369 36.0953L56.1289 36.5576ZM54.4855 28.5149C58.4259 28.0046 66.5851 34.7045 62.1807 38.2853C58.3937 41.3644 53.0411 36.2638 52.2599 32.5256C51.8756 30.6861 52.3718 28.7882 54.4855 28.5149Z" fill="black"/>
<path d="M49.7268 37.9427C50.0693 38.0302 51.1246 37.9427 51.5718 37.9427C51.6333 37.9427 51.8105 37.6907 51.7451 37.5978C50.9978 37.3119 50.2953 37.6041 49.5536 37.7127C49.5213 37.745 49.6842 37.9316 49.7268 37.9427ZM52.4074 37.3946C53.2547 38.2844 51.1718 40.1619 50.3551 40.4248L50.293 40.6012C50.538 42.4527 52.9027 42.5621 53.8714 41.1642C54.0288 40.9366 54.0564 40.7469 54.1572 40.5288C54.2272 40.3792 54.1581 40.2421 54.4548 40.3657C54.8046 40.5115 54.4675 41.1903 54.3461 41.4084C53.5138 42.9189 51.6097 43.2046 50.3025 42.1148C48.9984 43.7866 46.783 43.6173 45.8625 41.6934C46.2964 41.1943 46.5437 42.0519 47.0502 42.3494C47.9565 42.8827 49.6054 42.5645 49.8473 41.4062C50.0725 40.328 49.0873 40.428 48.3763 40.1004C43.7788 37.9782 51.1726 36.0969 52.4074 37.3946Z" fill="black"/>
<path d="M56.1291 36.5576L57.3371 36.0945C60.3957 33.7556 55.9928 29.7119 54.0784 33.1832C53.9478 33.4201 53.9391 33.4792 53.9406 33.1619C54.6439 30.9506 57.3655 30.7332 58.7136 32.5319C60.3201 34.6738 58.638 36.9914 56.1291 36.5576Z" fill="white"/>
<path d="M55.4021 32.6546C56.4889 32.3264 56.678 34.1289 55.5211 33.884C54.8675 33.7463 54.9195 32.8004 55.4021 32.6546Z" fill="white"/>
<path d="M49.7267 37.9427C49.6842 37.9316 49.5213 37.745 49.5535 37.7127C50.2952 37.604 50.9978 37.3119 51.7451 37.5978C51.8104 37.6907 51.6332 37.9427 51.5717 37.9427C51.1246 37.9427 50.0692 38.0302 49.7267 37.9427Z" fill="white"/>
</svg>
